<svg xmlns="http://www.w3.org/2000/svg" viewBox="0 0 400 400" width="100%" height="100%">
      <defs>
        <linearGradient id="bg" x1="0" y1="0" x2="1" y2="1">
          <stop offset="0%" stop-color="#F8FAFC"/>
          <stop offset="100%" stop-color="#E2E8F0"/>
        </linearGradient>
        <linearGradient id="trouserGrad" x1="0" y1="0" x2="0" y2="1">
          <stop offset="0%" stop-color="#334155"/>
          <stop offset="50%" stop-color="#1E293B"/>
          <stop offset="100%" stop-color="#0F172A"/>
        </linearGradient>
        <filter id="shadow" x="-10%" y="-10%" width="120%" height="120%">
          <feDropShadow dx="0" dy="12" stdDeviation="10" flood-opacity="0.25"/>
        </filter>
      </defs>
      <rect width="400" height="400" fill="url(#bg)"/>
      <g filter="url(#shadow)">
        <!-- Belt waistband -->
        <rect x="120" y="60" width="160" height="24" rx="4" fill="#475569"/>
        <rect x="185" y="64" width="30" height="16" rx="2" fill="#94A3B8"/>
        <!-- Main Trousers Body -->
        <path d="M120 84 L145 340 L190 340 L200 160 L210 340 L255 340 L280 84 Z" fill="url(#trouserGrad)"/>
        <!-- Crease line -->
        <line x1="167" y1="95" x2="167" y2="335" stroke="#475569" stroke-width="2" stroke-dasharray="4,2"/>
        <line x1="233" y1="95" x2="233" y2="335" stroke="#475569" stroke-width="2" stroke-dasharray="4,2"/>
        <!-- Pockets -->
        <path d="M130 90 Q145 120 150 140" stroke="#64748B" stroke-width="2" fill="none"/>
        <path d="M270 90 Q255 120 250 140" stroke="#64748B" stroke-width="2" fill="none"/>
      </g>
    </svg>