<svg xmlns="http://www.w3.org/2000/svg" viewBox="0 0 400 400" width="100%" height="100%">
      <defs>
        <linearGradient id="bg" x1="0" y1="0" x2="1" y2="1"><stop offset="0%" stop-color="#F8FAFC"/><stop offset="100%" stop-color="#E2E8F0"/></linearGradient>
        <filter id="shadow"><feDropShadow dx="0" dy="12" stdDeviation="12" flood-opacity="0.2"/></filter>
      </defs>
      <rect width="400" height="400" fill="url(#bg)"/>
      <g filter="url(#shadow)">
        <!-- Crisp White School Shirt -->
        <path d="M140 85 L85 160 L125 175 L145 140 L145 320 L255 320 L255 140 L275 175 L315 160 L260 85 Z" fill="#FFFFFF" stroke="#CBD5E1" stroke-width="2"/>
        <!-- White Collar -->
        <polygon points="140,85 200,120 260,85 200,65" fill="#F8FAFC" stroke="#94A3B8" stroke-width="1"/>
        <!-- Red & Blue Striped School Tie -->
        <polygon points="192,115 208,115 212,240 200,260 188,240" fill="#DC2626"/>
        <line x1="190" y1="140" x2="210" y2="155" stroke="#1E3A8A" stroke-width="4"/>
        <line x1="190" y1="175" x2="210" y2="190" stroke="#1E3A8A" stroke-width="4"/>
        <line x1="190" y1="210" x2="210" y2="225" stroke="#1E3A8A" stroke-width="4"/>
        <!-- School Crest Badge -->
        <path d="M220 155 L240 155 L240 180 L230 190 L220 180 Z" fill="#1E3A8A"/>
        <circle cx="230" cy="170" r="4" fill="#FBBF24"/>
      </g>
    </svg>